# xmcd
#
# Track frame offsets: 
#        150
#        12957
#        25838
#        36751
#        51191
#        65142
#        77561
#        90105
#        102450
#        114639
#        126906
#        138246
#        149155
#        162871
#        172781
#        184460
#        197995
#        209737
#        219526
#        230301
#
# Disc length: 3243 seconds
#
# Revision: 0
# Processed by: cddbd v1.5.2PL0 Copyright (c) Steve Scherf et al.
# Submitted via: ExactAudioCopy v0.99pb5
#
DISCID=240ca914
DTITLE=Champion Jack Dupree - Shake Baby Shake
DYEAR=2007
DGENRE=Blues
TTITLE0=Stumbling Block Blues
TTITLE1=Highway Blues
TTITLE2=Shake Baby Shake
TTITLE3=Number Nine Blues
TTITLE4=Drunk Again
TTITLE5=Shim Sham Shimmy
TTITLE6=The Blues Got Me Rockin
TTITLE7=Tongued Tied Blues
TTITLE8=Please Tell Me Baby
TTITLE9=Walkin Upside Your Head
TTITLE10=Rub A Little Boogie
TTITLE11=Camille
TTITLE12=Two Below Zero
TTITLE13=Let The Doorbell Ring
TTITLE14=Blues For Everybody
TTITLE15=Walking The Blues
TTITLE16=She Cooks Me Cabbage
TTITLE17=Me And My Mule
TTITLE18=Lonely Road Blues
TTITLE19=When I Got Married
EXTD=
EXTT0=
EXTT1=
EXTT2=
EXTT3=
EXTT4=
EXTT5=
EXTT6=
EXTT7=
EXTT8=
EXTT9=
EXTT10=
EXTT11=
EXTT12=
EXTT13=
EXTT14=
EXTT15=
EXTT16=
EXTT17=
EXTT18=
EXTT19=
PLAYORDER=
